<svg width="409.76001586914066" height="92.52891665642927" viewBox="0 0 370 83.55060971544917" class="css-1j8o68f">
  <defs id="SvgjsDefs1275"></defs>
  <g id="SvgjsG1276" featurekey="symbolFeature-0" transform="matrix(1.1672502680529258,0,0,1.1672502680529258,-23.362513402646282,-16.58662635355914)" fill="#b469ff">
    <g xmlns="http://www.w3.org/2000/svg">
      <path d="M69.832,70.521h-9.088l4.112-11.08c0.165-0.445,0.091-0.907-0.131-1.287l1.881-5.068c0.183-0.494-0.068-1.041-0.562-1.224   c-0.109-0.04-0.221-0.06-0.331-0.06c-0.387,0-0.75,0.237-0.893,0.62l-1.874,5.049c-0.422,0.141-0.78,0.461-0.947,0.911   l-4.506,12.139h-8.801l-4.506-12.139c-0.167-0.45-0.525-0.769-0.947-0.911l-1.874-5.049c-0.142-0.384-0.506-0.62-0.893-0.62   c-0.11,0-0.222,0.019-0.331,0.06c-0.493,0.183-0.745,0.73-0.562,1.224l1.881,5.068c-0.222,0.38-0.297,0.842-0.131,1.287   l4.112,11.08H21.538c-0.841,0-1.523,0.681-1.523,1.523v12.222c0,0.842,0.682,1.523,1.523,1.523h48.293   c0.841,0,1.523-0.681,1.523-1.523V72.045C71.355,71.203,70.673,70.521,69.832,70.521z M68.308,82.743H23.062v-9.176h45.247V82.743z   "></path>
      <path d="M79.706,25.147C72.653,18.094,63.263,14.21,53.263,14.21s-19.39,3.884-26.443,10.937c-0.372,0.372-0.372,0.976,0,1.348   c0.372,0.372,0.974,0.372,1.346,0c6.693-6.694,15.606-10.38,25.097-10.38S71.667,19.8,78.36,26.495   c0.186,0.186,0.429,0.278,0.673,0.278c0.244,0,0.487-0.092,0.673-0.278C80.078,26.123,80.078,25.519,79.706,25.147z"></path>
      <path d="M35.402,33.727c-0.372,0.372-0.372,0.976,0,1.348c0.372,0.372,0.974,0.372,1.346,0c9.109-9.107,23.924-9.106,33.03,0   c0.186,0.186,0.429,0.278,0.673,0.278c0.244,0,0.487-0.092,0.673-0.278c0.372-0.372,0.372-0.976,0-1.348   C61.278,23.879,45.251,23.881,35.402,33.727z"></path>
      <path d="M44.657,43.935c0.244,0,0.487-0.092,0.673-0.278c4.375-4.377,11.493-4.374,15.867,0c0.372,0.372,0.974,0.372,1.346,0   c0.372-0.372,0.372-0.976,0-1.348c-5.116-5.113-13.442-5.116-18.559,0c-0.372,0.372-0.372,0.976,0,1.348   C44.17,43.843,44.413,43.935,44.657,43.935z"></path>
    </g>
  </g>
  <g id="SvgjsG1277" featurekey="nameFeature-0" transform="matrix(0.7198229188421438,0,0,0.7198229188421438,85.838271127044,28.10007581840175)" fill="#b469ff">
    <path d="M32.813 27.344 c-0.98961 2.3959 -2.3438 4.375 -4.0625 5.9375 c-1.7709 1.6666 -3.8542 2.9688 -6.2501 3.9063 s-5.0781 1.4063 -8.0469 1.4063 l-8.6719 0 l0 -5.9375 l8.5938 0 c1.9791 0 3.776 -0.3125 5.3906 -0.9375 c1.5625 -0.625 2.9166 -1.5104 4.0625 -2.6563 s2.0313 -2.5 2.6563 -4.0625 s0.9375 -3.2813 0.9375 -5.1563 c0 -1.8229 -0.3125 -3.5156 -0.9375 -5.0781 c-0.625 -1.6146 -1.5104 -2.9427 -2.6563 -3.9844 c-1.0416 -1.0938 -2.3958 -1.9791 -4.0624 -2.6563 c-1.6666 -0.625 -3.4635 -0.9375 -5.3906 -0.9375 l-8.5938 0 l0 -5.9375 l8.6719 0 c2.7604 0 5.4166 0.49477 7.9688 1.4844 c2.3959 0.88539 4.5052 2.2135 6.3281 3.9844 c1.7709 1.6146 3.125 3.5938 4.0625 5.9375 c0.98961 2.3959 1.4844 4.8438 1.4844 7.3438 c0 2.7084 -0.49477 5.1563 -1.4844 7.3438 z M46.0938 1.4059999999999988 l27.813 0 l0 5.9375 l-27.813 0 l0 -5.9375 z M46.0938 32.6562 l27.734 0 l0 5.9375 l-27.734 0 l0 -5.9375 z M46.0938 16.875 l25.078 0 l0 5.8594 l-25.078 0 l0 -5.8594 z M88.9844 1.328000000000003 l-7.0313 0 l13.594 37.266 l7.1094 0 l-7.8906 -22.344 z M117.73400000000001 1.328000000000003 l-6.875 0 l-8.125 19.844 l3.3594 8.9063 z M152.813 27.344 c-0.98961 2.3959 -2.3438 4.375 -4.0625 5.9375 c-1.7709 1.6666 -3.8542 2.9688 -6.2501 3.9063 s-5.0781 1.4063 -8.0469 1.4063 l-8.6719 0 l0 -5.9375 l8.5938 0 c1.9791 0 3.776 -0.3125 5.3906 -0.9375 c1.5625 -0.625 2.9166 -1.5104 4.0625 -2.6563 s2.0313 -2.5 2.6563 -4.0625 s0.9375 -3.2813 0.9375 -5.1563 c0 -1.8229 -0.3125 -3.5156 -0.9375 -5.0781 c-0.625 -1.6146 -1.5104 -2.9427 -2.6563 -3.9844 c-1.0416 -1.0938 -2.3958 -1.9791 -4.0624 -2.6563 c-1.6666 -0.625 -3.4635 -0.9375 -5.3906 -0.9375 l-8.5938 0 l0 -5.9375 l8.6719 0 c2.7604 0 5.4166 0.49477 7.9688 1.4844 c2.3959 0.88539 4.5052 2.2135 6.3281 3.9844 c1.7709 1.6146 3.125 3.5938 4.0625 5.9375 c0.98961 2.3959 1.4844 4.8438 1.4844 7.3438 c0 2.7084 -0.49477 5.1563 -1.4844 7.3438 z M169.1406 1.328000000000003 l-7.2656 0 l14.531 22.578 l0 14.766 l7.1094 0 l0 -14.922 z M198.125 1.328000000000003 l-6.7969 0 l-8.5938 12.266 l3.8281 5.1563 z M203.8281 38.5937 l6.4844 0 l0 -19.922 l-6.4844 -9.1406 l0 29.063 z M229.766 1.4059999999999988 l0 25.703 l-18.359 -25.703 l-7.0313 0 l26.406 37.188 l5.3906 0 l0 -37.188 l-6.4063 0 z M270.703 38.5937 l7.0313 0 l-13.594 -37.266 l-7.1094 0 l7.8906 22.266 z M241.9531 38.5937 l6.875 0 l8.125 -19.844 l-3.3594 -8.9063 z M311.953 38.5937 l6.5625 0 l0 -27.422 l-6.5625 9.6094 l0 17.813 z M318.516 1.4059999999999988 l-7.0313 0 l-11.484 17.813 l-11.406 -17.813 l-7.0313 0 l0 37.188 l6.5625 0 l0 -26.406 l11.719 17.578 l0.23438 0 l10.234 -15.156 c0.052109 -0.20836 2.7865 -4.6094 8.2031 -13.203 z M337.344 32.6562 c-0.78125 -0.15625 -1.5105 -0.3907 -2.1876 -0.7032 c-1.4584 -0.67711 -2.7344 -1.6146 -3.8281 -2.8125 c-1.0416 -1.0938 -1.875 -2.4479 -2.5 -4.0625 c-0.57289 -1.6146 -0.85938 -3.2552 -0.85938 -4.9219 l0 -0.15625 l0 -0.23438 c0 -1.7188 0.28648 -3.3854 0.85938 -5 c0.67711 -1.6666 1.5105 -2.9948 2.5001 -3.9844 c1.0416 -1.1979 2.2916 -2.1094 3.75 -2.7344 c0.88539 -0.41664 1.6406 -0.67703 2.2656 -0.78117 l0 -5.8594 c-1.8229 0.26039 -3.4375 0.70313 -4.8438 1.3281 c-2.2916 0.98961 -4.2448 2.3177 -5.8594 3.9844 s-2.8906 3.6458 -3.8281 5.9374 s-1.4063 4.6875 -1.4063 7.1875 l0 0.15625 l0 0.23438 c0 2.5521 0.46875 4.948 1.4063 7.1876 c0.83336 2.2396 2.0834 4.1927 3.75 5.8594 c1.6666 1.7188 3.6198 3.0469 5.8594 3.9844 c1.4063 0.625 3.0469 1.0677 4.9219 1.3281 l0 -5.9375 z M358.594 20 l0.000076294 -0.23438 c0 -2.5521 -0.46875 -4.948 -1.4063 -7.1876 c-0.9375 -2.2916 -2.2135 -4.2708 -3.8281 -5.9374 c-1.5625 -1.6666 -3.4896 -2.9688 -5.7813 -3.9063 c-1.3021 -0.625 -2.8906 -1.0677 -4.7656 -1.3281 l0 5.9375 l0.9375 0.3125 c0.46875 0.15625 0.83336 0.28648 1.0938 0.39063 c1.4584 0.67711 2.7344 1.6146 3.8281 2.8125 c1.0416 1.0938 1.875 2.4479 2.5 4.0625 c0.57289 1.6146 0.85938 3.2552 0.85938 4.9219 l0 0.15625 l0 0.23438 c0 1.7188 -0.28648 3.3854 -0.85938 5 c-0.67711 1.6666 -1.5105 2.9948 -2.5001 3.9844 c-1.0416 1.1979 -2.2916 2.1094 -3.75 2.7344 c-0.67711 0.3125 -1.3802 0.54688 -2.1094 0.70313 l0 5.9375 c1.5625 -0.20836 3.125 -0.65109 4.6875 -1.3282 c2.1354 -0.88539 4.0885 -2.2135 5.8594 -3.9844 c1.7188 -1.8229 2.9948 -3.802 3.8281 -5.9374 c0.9375 -2.2916 1.4063 -4.6875 1.4063 -7.1875 l0 -0.15625 z M384.922 1.4059999999999988 c-2.8646 0 -5.5209 0.4686 -7.9688 1.4061 c-2.3959 0.9375 -4.4792 2.2396 -6.2501 3.9063 c-1.7188 1.5625 -3.0729 3.5416 -4.0625 5.9375 c-0.83336 2.0313 -1.3021 4.2448 -1.4063 6.6406 l0 2.3438 l6.875 0 l0 -2.3438 c0.10414 -1.7709 0.39063 -3.2031 0.85938 -4.2969 c0.625 -1.5104 1.4844 -2.8645 2.5781 -4.0624 c1.3021 -1.1979 2.6563 -2.0833 4.0625 -2.6562 c1.6146 -0.625 3.3855 -0.9375 5.3126 -0.9375 l9.8438 0 l0 -5.9375 l-9.8438 0 z M387.891 18.984 l0.000076294 1.4843 l0.078125 0 c-0.10414 1.6666 -0.41664 3.2031 -0.9375 4.6094 c-0.67711 1.6146 -1.5365 2.9427 -2.5781 3.9844 c-1.1459 1.1459 -2.5 2.0313 -4.0625 2.6563 c-1.6146 0.625 -3.3855 0.9375 -5.3126 0.9375 l-9.8438 0 l0 5.9375 l9.8438 0 c2.8646 0 5.5209 -0.46875 7.9688 -1.4063 c2.3959 -0.9375 4.4792 -2.2396 6.2501 -3.9063 c1.8229 -1.8229 3.177 -3.802 4.0624 -5.9374 c0.9375 -2.0834 1.4063 -4.375 1.4063 -6.875 l0 -1.4844 l-6.875 0 z"></path>
  </g>
</svg>